<mxfile host="app.diagrams.net" agent="Mozilla/5.0 (Windows NT 10.0; Win64; x64) AppleWebKit/537.36 (KHTML, like Gecko) Chrome/132.0.0.0 Safari/537.36" version="26.0.10">
  <diagram name="Page-1" id="U3vzaVGJRuIIN2docCHV">
    <mxGraphModel dx="463" dy="442" grid="1" gridSize="10" guides="1" tooltips="1" connect="1" arrows="1" fold="1" page="1" pageScale="1" pageWidth="850" pageHeight="1100" math="0" shadow="0">
      <root>
        <mxCell id="0" />
        <mxCell id="1" parent="0" />
        <mxCell id="D4A6wDwTuZnIC6UNoz5c-5" style="edgeStyle=orthogonalEdgeStyle;rounded=0;orthogonalLoop=1;jettySize=auto;html=1;exitX=0.5;exitY=1;exitDx=0;exitDy=0;" edge="1" parent="1" source="D4A6wDwTuZnIC6UNoz5c-1" target="D4A6wDwTuZnIC6UNoz5c-4">
          <mxGeometry relative="1" as="geometry" />
        </mxCell>
        <mxCell id="D4A6wDwTuZnIC6UNoz5c-1" value="view_name (username)" style="ellipse;whiteSpace=wrap;html=1;" vertex="1" parent="1">
          <mxGeometry x="357" y="50" width="137" height="60" as="geometry" />
        </mxCell>
        <mxCell id="D4A6wDwTuZnIC6UNoz5c-4" value="Execute SQL (&quot;SELECT name FROM account WHERE username = ?&quot;,(username,))" style="rounded=0;whiteSpace=wrap;html=1;" vertex="1" parent="1">
          <mxGeometry x="353" y="140" width="144.5" height="60" as="geometry" />
        </mxCell>
        <mxCell id="D4A6wDwTuZnIC6UNoz5c-9" style="edgeStyle=orthogonalEdgeStyle;rounded=0;orthogonalLoop=1;jettySize=auto;html=1;exitX=0.5;exitY=1;exitDx=0;exitDy=0;entryX=0.5;entryY=0;entryDx=0;entryDy=0;" edge="1" parent="1" source="D4A6wDwTuZnIC6UNoz5c-6" target="D4A6wDwTuZnIC6UNoz5c-8">
          <mxGeometry relative="1" as="geometry" />
        </mxCell>
        <mxCell id="D4A6wDwTuZnIC6UNoz5c-6" value="fetch result" style="rounded=0;whiteSpace=wrap;html=1;" vertex="1" parent="1">
          <mxGeometry x="365.5" y="230" width="120" height="60" as="geometry" />
        </mxCell>
        <mxCell id="D4A6wDwTuZnIC6UNoz5c-7" style="edgeStyle=orthogonalEdgeStyle;rounded=0;orthogonalLoop=1;jettySize=auto;html=1;exitX=0.5;exitY=1;exitDx=0;exitDy=0;entryX=0.501;entryY=-0.042;entryDx=0;entryDy=0;entryPerimeter=0;" edge="1" parent="1" source="D4A6wDwTuZnIC6UNoz5c-4" target="D4A6wDwTuZnIC6UNoz5c-6">
          <mxGeometry relative="1" as="geometry" />
        </mxCell>
        <mxCell id="D4A6wDwTuZnIC6UNoz5c-13" style="edgeStyle=orthogonalEdgeStyle;rounded=0;orthogonalLoop=1;jettySize=auto;html=1;exitX=0.5;exitY=1;exitDx=0;exitDy=0;entryX=0.5;entryY=0;entryDx=0;entryDy=0;" edge="1" parent="1" source="D4A6wDwTuZnIC6UNoz5c-8" target="D4A6wDwTuZnIC6UNoz5c-12">
          <mxGeometry relative="1" as="geometry" />
        </mxCell>
        <mxCell id="D4A6wDwTuZnIC6UNoz5c-8" value="name = result[0]" style="rounded=0;whiteSpace=wrap;html=1;" vertex="1" parent="1">
          <mxGeometry x="377.12" y="320" width="96.75" height="50" as="geometry" />
        </mxCell>
        <mxCell id="D4A6wDwTuZnIC6UNoz5c-10" value="exit" style="ellipse;whiteSpace=wrap;html=1;" vertex="1" parent="1">
          <mxGeometry x="403" y="460" width="45" height="30" as="geometry" />
        </mxCell>
        <mxCell id="D4A6wDwTuZnIC6UNoz5c-14" style="edgeStyle=orthogonalEdgeStyle;rounded=0;orthogonalLoop=1;jettySize=auto;html=1;entryX=0.5;entryY=0;entryDx=0;entryDy=0;" edge="1" parent="1" source="D4A6wDwTuZnIC6UNoz5c-12" target="D4A6wDwTuZnIC6UNoz5c-10">
          <mxGeometry relative="1" as="geometry" />
        </mxCell>
        <mxCell id="D4A6wDwTuZnIC6UNoz5c-12" value="return name" style="rounded=0;whiteSpace=wrap;html=1;" vertex="1" parent="1">
          <mxGeometry x="383" y="390" width="84.5" height="40" as="geometry" />
        </mxCell>
      </root>
    </mxGraphModel>
  </diagram>
</mxfile>
